<svg viewBox="0 0 256 256" xmlns="http://www.w3.org/2000/svg"><path d="m80 108a12 12 0 1 1 12 12 12 12 0 0 1 -12-12zm84 12a12 12 0 1 0 -12-12 12 12 0 0 0 12 12zm68 8a104 104 0 1 1 -104-104 104.11791 104.11791 0 0 1 104 104zm-16 0a88 88 0 1 0 -88 88 88.09957 88.09957 0 0 0 88-88zm-42.416 17.07129a8.00013 8.00013 0 0 0 -10.93066 2.91894 40.19383 40.19383 0 0 1 -19.08645 16.86577 39.95957 39.95957 0 0 1 -43.85156-8.57569 40.19991 40.19991 0 0 1 -6.36865-8.28906 8 8 0 0 0 -13.84961 8.01172 56.02776 56.02776 0 0 0 97.00586-.001 8.00024 8.00024 0 0 0 -2.91893-10.93068z"/></svg>